<svg xmlns="http://www.w3.org/2000/svg" width="80" height="80" fill="none"><path stroke="#7D7D7D" stroke-miterlimit="10" stroke-width="1.5" d="M40.002 70.304H22.498l-5.12-8.88-4.112-7.12 4.112-7.136m-.002-.001H9.12L5.008 40l5.824-10.096 2.4-4.144 4.16-7.184 4.112-7.136.992-1.744H40"/><path stroke="#7D7D7D" stroke-miterlimit="10" stroke-width="1.5" d="M40.002 63.168H26.626l-5.12-8.864-4.128-7.136L21.554 40H13.25l5.872-10.192 2.384-4.112 4.112-7.12 1.008-1.744h13.376"/><path stroke="#7D7D7D" stroke-miterlimit="10" stroke-width="1.5" d="M39.999 24.016h-9.232L21.55 40l9.216 15.984h9.232M13.25 40l-4.13 7.168m61.762 0L66.754 40M40 70.304h17.504l5.12-8.88 4.112-7.12-4.112-7.136m0-.001 8.272-.064L74.992 40l-5.824-10.096-2.4-4.144-4.16-7.184-4.112-7.136-.992-1.744H40"/><path stroke="#7D7D7D" stroke-miterlimit="10" stroke-width="1.5" d="M40 63.168h13.376l5.12-8.864 4.128-7.136L58.448 40h8.304L60.88 29.808l-2.384-4.112-4.112-7.12-1.008-1.744H40"/><path stroke="#7D7D7D" stroke-miterlimit="10" stroke-width="1.5" d="M40 24.016h9.232L58.448 40l-9.216 15.984H40m-9.231-31.968-4.144-7.184m22.605 7.184 4.145-7.184"/></svg>