<svg xmlns="http://www.w3.org/2000/svg" width="43" height="48" fill="none"><g clip-path="url(#a)"><path fill="#7D7D7D" fill-rule="evenodd" d="M22.673 8.411a6.8 6.8 0 0 0-.72-3.05 6.8 6.8 0 0 1-.707-2.624l-.137-2.19-.137 2.19a6.8 6.8 0 0 1-.707 2.624 6.8 6.8 0 0 0-.72 3.05v31.18a6.8 6.8 0 0 0 .72 3.05c.41.82.65 1.712.707 2.625l.137 2.19.137-2.19a6.8 6.8 0 0 1 .707-2.625c.473-.947.72-1.99.72-3.05zm-8.538.078a6.8 6.8 0 0 1 .72 3.05v24.925a6.8 6.8 0 0 1-.72 3.05 6.8 6.8 0 0 0-.707 2.625l-.137 2.19-.137-2.19a6.8 6.8 0 0 0-.707-2.625 6.8 6.8 0 0 1-.72-3.05V11.54a6.8 6.8 0 0 1 .72-3.05c.41-.819.65-1.712.707-2.625l.137-2.19.137 2.19c.057.913.297 1.806.706 2.625Zm-3.19 6.177a6.8 6.8 0 0 0-.72-3.05 6.8 6.8 0 0 1-.706-2.625l-.137-2.19-.137 2.19a6.8 6.8 0 0 1-.707 2.625 6.8 6.8 0 0 0-.72 3.05v18.67a6.8 6.8 0 0 0 .72 3.05c.41.82.65 1.712.707 2.625l.137 2.19.137-2.19a6.8 6.8 0 0 1 .706-2.624 6.8 6.8 0 0 0 .72-3.05zM6.316 17.87a6.8 6.8 0 0 1 .72 3.05v6.162a6.8 6.8 0 0 1-.72 3.05 6.8 6.8 0 0 0-.706 2.625l-.137 2.19-.137-2.19a6.8 6.8 0 0 0-.707-2.625 6.8 6.8 0 0 1-.72-3.05v-6.161a6.8 6.8 0 0 1 .72-3.05 6.8 6.8 0 0 0 .707-2.625l.137-2.19.137 2.19a6.8 6.8 0 0 0 .706 2.624m-3.189 6.131v.047-.093zM0 24.048V24a6.8 6.8 0 0 0 .72 3.004c.41.819.65 1.711.707 2.625l.137 2.19.136-2.19a6.8 6.8 0 0 1 .707-2.625A6.8 6.8 0 0 0 3.127 24a6.8 6.8 0 0 0-.72-3.003 6.8 6.8 0 0 1-.707-2.625l-.136-2.19-.137 2.19a6.8 6.8 0 0 1-.707 2.625A6.8 6.8 0 0 0 0 24v-.046zM18.044 5.36a6.8 6.8 0 0 1 .72 3.05v31.18a6.8 6.8 0 0 1-.72 3.05 6.8 6.8 0 0 0-.707 2.625l-.137 2.19-.137-2.19a6.8 6.8 0 0 0-.707-2.625 6.8 6.8 0 0 1-.72-3.05V8.411a6.8 6.8 0 0 1 .72-3.05c.41-.818.65-1.71.707-2.624L17.2.547l.137 2.19c.057.913.297 1.806.707 2.624Zm7.818 0a6.8 6.8 0 0 1 .72 3.05v31.18a6.8 6.8 0 0 1-.72 3.05 6.8 6.8 0 0 0-.707 2.625l-.137 2.19-.137-2.19a6.8 6.8 0 0 0-.706-2.625 6.8 6.8 0 0 1-.72-3.05V8.411a6.8 6.8 0 0 1 .72-3.05c.409-.818.65-1.71.706-2.624l.137-2.19.137 2.19c.057.913.297 1.806.707 2.624Zm4.629 6.178a6.8 6.8 0 0 0-.72-3.05 6.8 6.8 0 0 1-.707-2.625l-.137-2.19-.136 2.19a6.8 6.8 0 0 1-.707 2.625 6.8 6.8 0 0 0-.72 3.05v24.925a6.8 6.8 0 0 0 .72 3.05c.409.819.65 1.711.707 2.625l.136 2.19.137-2.19a6.8 6.8 0 0 1 .707-2.625 6.8 6.8 0 0 0 .72-3.05V11.54Zm3.189.077c.474.947.72 1.991.72 3.05v18.67a6.8 6.8 0 0 1-.72 3.05 6.8 6.8 0 0 0-.707 2.625l-.137 2.19-.136-2.19a6.8 6.8 0 0 0-.707-2.624 6.8 6.8 0 0 1-.72-3.05v-18.67a6.8 6.8 0 0 1 .72-3.05c.41-.819.65-1.711.707-2.625l.136-2.19.137 2.19c.057.914.298 1.806.707 2.625Zm4.63 9.305a6.8 6.8 0 0 0-.721-3.05 6.8 6.8 0 0 1-.707-2.625l-.136-2.19-.137 2.19a6.8 6.8 0 0 1-.707 2.624 6.8 6.8 0 0 0-.72 3.05v6.162a6.8 6.8 0 0 0 .72 3.05c.41.819.65 1.711.707 2.625l.136 2.19.137-2.19a6.8 6.8 0 0 1 .707-2.625 6.8 6.8 0 0 0 .72-3.05zM42.217 24v.047-.093zm-3.127 0a6.8 6.8 0 0 0 .72 3.004c.41.819.65 1.711.707 2.625l.136 2.19.137-2.19a6.8 6.8 0 0 1 .707-2.625 6.8 6.8 0 0 0 .72-3.004 6.8 6.8 0 0 0-.72-3.003 6.8 6.8 0 0 1-.707-2.625l-.136-2.19-.137 2.19a6.8 6.8 0 0 1-.707 2.625A6.8 6.8 0 0 0 39.09 24m0 0v-.046.093z" clip-rule="evenodd"/></g><defs><clipPath id="a"><path fill="#fff" d="M0 0h43v48H0z"/></clipPath></defs></svg>