<svg xmlns="http://www.w3.org/2000/svg" width="81" height="81" fill="none"><path stroke="#7D7D7D" stroke-miterlimit="10" stroke-width=".8" d="M40.702 47.703c7.51 0 13.6-3.245 13.6-7.248s-6.09-7.248-13.6-7.248c-7.511 0-13.6 3.245-13.6 7.248s6.088 7.248 13.6 7.248Z"/><path stroke="#7D7D7D" stroke-miterlimit="10" stroke-width=".8" d="M40.704 48.42c8.766 0 15.872-3.567 15.872-7.968s-7.106-7.968-15.872-7.968-15.872 3.568-15.872 7.968 7.106 7.968 15.872 7.968Z"/><path stroke="#7D7D7D" stroke-miterlimit="10" stroke-width=".8" d="M40.703 49.158c10.02 0 18.144-3.897 18.144-8.704s-8.124-8.704-18.144-8.704c-10.021 0-18.144 3.897-18.144 8.704s8.123 8.704 18.144 8.704Z"/><path stroke="#7D7D7D" stroke-miterlimit="10" stroke-width=".8" d="M40.705 49.875c11.275 0 20.416-4.219 20.416-9.424s-9.14-9.424-20.416-9.424-20.416 4.22-20.416 9.424c0 5.205 9.14 9.424 20.416 9.424Z"/><path stroke="#7D7D7D" stroke-miterlimit="10" stroke-width=".8" d="M40.703 50.613c12.522 0 22.672-4.549 22.672-10.16s-10.15-10.16-22.672-10.16-22.672 4.549-22.672 10.16 10.15 10.16 22.672 10.16Z"/><path stroke="#7D7D7D" stroke-miterlimit="10" stroke-width=".8" d="M40.702 51.334c13.776 0 24.944-4.871 24.944-10.88s-11.168-10.88-24.944-10.88-24.944 4.871-24.944 10.88 11.168 10.88 24.944 10.88Z"/><path stroke="#7D7D7D" stroke-miterlimit="10" stroke-width=".8" d="M40.704 52.068c15.031 0 27.216-5.2 27.216-11.616S55.735 28.836 40.704 28.836c-15.03 0-27.216 5.2-27.216 11.616s12.185 11.616 27.216 11.616Z"/><path stroke="#7D7D7D" stroke-miterlimit="10" stroke-width=".8" d="M40.703 52.79c16.286 0 29.488-5.524 29.488-12.337S56.989 28.117 40.703 28.117 11.215 33.64 11.215 40.453s13.202 12.336 29.488 12.336Z"/><path stroke="#7D7D7D" stroke-miterlimit="10" stroke-width=".8" d="M40.701 53.51c17.541 0 31.76-5.845 31.76-13.056s-14.219-13.056-31.76-13.056c-17.54 0-31.76 5.846-31.76 13.056 0 7.211 14.22 13.056 31.76 13.056Z"/><path stroke="#7D7D7D" stroke-miterlimit="10" stroke-width=".8" d="M40.704 54.244c18.795 0 34.032-6.175 34.032-13.792S59.499 26.66 40.704 26.66c-18.796 0-34.032 6.175-34.032 13.792s15.236 13.792 34.032 13.792Z"/><path stroke="#7D7D7D" stroke-miterlimit="10" stroke-width=".8" d="M40.702 54.965c20.05 0 36.304-6.497 36.304-14.512 0-8.014-16.254-14.512-36.304-14.512S4.398 32.44 4.398 40.453c0 8.015 16.254 14.512 36.304 14.512Z"/><path stroke="#7D7D7D" stroke-miterlimit="10" stroke-width=".8" d="M40.705 55.703c21.296 0 38.56-6.827 38.56-15.248S62 25.207 40.704 25.207s-38.56 6.827-38.56 15.248 17.264 15.248 38.56 15.248Z"/></svg>